G04 ================== begin FILE IDENTIFICATION RECORD ==================*
G04 Layout Name:  D:/LayoutPCB/pedal_3D_zoom_control_bluetooth/test.brd*
G04 Film Name:    artsmdbtm*
G04 File Format:  Gerber RS274X*
G04 File Origin:  Cadence Allegro 16.6-P004*
G04 Origin Date:  Mon Aug 18 10:59:09 2014*
G04 *
G04 Layer:  VIA CLASS/PASTEMASK_BOTTOM*
G04 Layer:  PIN/PASTEMASK_BOTTOM*
G04 Layer:  DRAWING FORMAT/OUTLINE*
G04 Layer:  DRAWING FORMAT/TITLE_BLOCK*
G04 Layer:  DRAWING FORMAT/TITLE_DATA*
G04 Layer:  DRAWING FORMAT/REVISION_BLOCK*
G04 Layer:  DRAWING FORMAT/REVISION_DATA*
G04 Layer:  BOARD GEOMETRY/OUTLINE*
G04 *
G04 Offset:    (0.00 0.00)*
G04 Mirror:    No*
G04 Mode:      Positive*
G04 Rotation:  0*
G04 FullContactRelief:  No*
G04 UndefLineWidth:     2.00*
G04 ================== end FILE IDENTIFICATION RECORD ====================*
%FSLAX25Y25*MOIN*%
%IR0*IPPOS*OFA0.00000B0.00000*MIA0B0*SFA1.00000B1.00000*%
%ADD11C,.06299*%
%ADD10R,.04X.08*%
%ADD12R,.088X.045*%
%ADD13C,.002*%
G75*
%LPD*%
G75*
G54D10*
X442900Y336500D03*
X458700D03*
Y368100D03*
X442900D03*
X486200Y336500D03*
Y368100D03*
X502000Y336500D03*
Y368100D03*
X667200Y336500D03*
Y368100D03*
X683000Y336500D03*
Y368100D03*
X710000Y336300D03*
X725800D03*
Y367900D03*
X710000D03*
G54D11*
X494343Y390955D03*
X477655Y407643D03*
X508344Y404956D03*
X522345Y418957D03*
X505657Y435645D03*
X516300Y464000D03*
X537900D03*
X572700Y412400D03*
Y452000D03*
X596300Y412400D03*
Y432200D03*
Y452000D03*
X627100Y412500D03*
X625000Y450200D03*
X622500Y481600D03*
X648700Y412500D03*
X667200Y407200D03*
X646600Y450200D03*
X665513Y462909D03*
Y453066D03*
Y443224D03*
X644100Y481600D03*
X688800Y407200D03*
X673348Y432121D03*
X673387Y473932D03*
X697994Y484011D03*
X688151D03*
X722561Y432121D03*
X707836Y484011D03*
X722600Y473932D03*
G54D12*
X530200Y342600D03*
X538000Y350500D03*
X530200Y366300D03*
X538000Y374200D03*
X530200Y390000D03*
X582400Y367000D03*
Y343300D03*
Y390700D03*
X590200Y351200D03*
Y374900D03*
X630800Y342900D03*
X638600Y350800D03*
X630800Y366600D03*
X638600Y374500D03*
X630800Y390300D03*
G54D13*
G01X415386Y503906D02*
X753906D01*
Y486420D01*
G03X756106Y484220I2200J0D01*
G01X773591D01*
Y342551D01*
X756106D01*
G03X753906Y340351I0J-2200D01*
G01Y322866D01*
X415386D01*
Y340351D01*
G03X413186Y342551I-2200J0D01*
G01X395701D01*
Y484220D01*
X413186D01*
G03X415386Y486420I0J2200D01*
G01Y503906D01*
G01X411417Y413386D02*
G03I-5905J0D01*
G01X426270Y436108D02*
G02Y436391I141J141D01*
G01X440189Y422472D02*
G02X439907I-141J142D01*
G01X476237Y486079D02*
G02X476519I141J-142D01*
G01X490016Y472582D02*
G02Y472300I-142J-141D01*
G01X590551Y494094D02*
G03I-5905J0D01*
G01X769685Y413386D02*
G03I-5905J0D01*
M02*
