G04 ================== begin FILE IDENTIFICATION RECORD ==================*
G04 Layout Name:  D:/LayoutPCB/pedal_3D_zoom_control_bluetooth/test.brd*
G04 Film Name:    artsilkall*
G04 File Format:  Gerber RS274X*
G04 File Origin:  Cadence Allegro 16.6-P004*
G04 Origin Date:  Mon Aug 18 10:59:09 2014*
G04 *
G04 Layer:  VIA CLASS/BOTTOM*
G04 Layer:  VIA CLASS/TOP*
G04 Layer:  PIN/BOTTOM*
G04 Layer:  PIN/TOP*
G04 Layer:  PACKAGE GEOMETRY/SILKSCREEN_TOP*
G04 Layer:  PACKAGE GEOMETRY/SILKSCREEN_BOTTOM*
G04 Layer:  ETCH/BOTTOM*
G04 Layer:  ETCH/TOP*
G04 Layer:  DRC ERROR CLASS/BOTTOM*
G04 Layer:  DRC ERROR CLASS/TOP*
G04 Layer:  DRAWING FORMAT/OUTLINE*
G04 Layer:  DRAWING FORMAT/TITLE_BLOCK*
G04 Layer:  DRAWING FORMAT/TITLE_DATA*
G04 Layer:  DRAWING FORMAT/REVISION_BLOCK*
G04 Layer:  DRAWING FORMAT/REVISION_DATA*
G04 Layer:  BOARD GEOMETRY/OUTLINE*
G04 Layer:  BOARD GEOMETRY/SILKSCREEN_TOP*
G04 *
G04 Offset:    (0.00 0.00)*
G04 Mirror:    No*
G04 Mode:      Positive*
G04 Rotation:  0*
G04 FullContactRelief:  No*
G04 UndefLineWidth:     0.00*
G04 ================== end FILE IDENTIFICATION RECORD ====================*
%FSLAX25Y25*MOIN*%
%IR0*IPPOS*OFA0.00000B0.00000*MIA0B0*SFA1.00000B1.00000*%
%ADD12C,.028*%
%ADD11C,.06299*%
%ADD10R,.04X.08*%
%ADD13R,.088X.045*%
%ADD14C,.008*%
%ADD15C,.09302*%
%ADD19R,.11804X.07504*%
%ADD17C,.13814*%
%ADD18C,.13816*%
%ADD20R,.03804X.03802*%
%ADD16R,.03804X.03804*%
G75*
%LPD*%
G75*
G36*
G01X417387Y324867D02*
Y340351D01*
G03X413186Y344552I-4201J0D01*
G01X397702D01*
Y482219D01*
X413186D01*
G03X417387Y486420I0J4201D01*
G01Y501905D01*
X751905D01*
Y486420D01*
G03X756106Y482219I4201J0D01*
G01X771590D01*
Y344552D01*
X756106D01*
G03X751905Y340351I0J-4201D01*
G01Y324867D01*
X417387D01*
G37*
%LPC*%
G75*
G36*
G01X589387Y499117D02*
G02X580774Y488374I-4742J-5022D01*
G03X580763Y488382I-241J-319D01*
G02X589387Y499117I3882J5713D01*
G37*
G36*
G01X709443Y488376D02*
G02X703514Y482293I-1607J-4365D01*
G03X703508Y482309I-378J-133D01*
G02X709443Y488376I4329J1702D01*
G37*
G36*
G01X702316Y482293D02*
G02X693672I-4322J1718D01*
G03X693666Y482309I-378J-133D01*
G02X702322I4328J1702D01*
G03X702316Y482293I372J-149D01*
G37*
G36*
G01X692473D02*
G02X683829I-4322J1718D01*
G03X683823Y482309I-378J-133D01*
G02X692479I4328J1702D01*
G03X692473Y482293I372J-149D01*
G37*
G36*
G01X626828Y483302D02*
G02X618172I-4328J-1702D01*
G03X618178Y483317I-368J156D01*
G02X626822I4322J-1717D01*
G03X626828Y483302I374J141D01*
G37*
G36*
G01X639778Y483317D02*
G02X641240Y477932I4322J-1718D01*
G02X639772Y483302I2860J3668D01*
G03X639778Y483317I-368J156D01*
G37*
G36*
G01X676623Y477272D02*
G02X672550Y469357I-3237J-3340D01*
G02X676610Y477286I837J4575D01*
G03X676623Y477272I299J265D01*
G37*
G36*
G01X669841Y454768D02*
G02X661185I-4328J-1702D01*
G03X661191Y454783I-368J156D01*
G02X669835I4322J-1717D01*
G03X669841Y454768I374J141D01*
G37*
G36*
G01X600099Y454684D02*
G02X592501I-3799J-2684D01*
G03X592507Y454692I-317J244D01*
G02X600093I3793J-2692D01*
G03X600099Y454684I323J236D01*
G37*
G36*
G01X556950Y372998D02*
X553898D01*
Y403556D01*
X553146D01*
Y407358D01*
X556950D01*
Y372998D01*
G37*
G36*
G01X588302Y363248D02*
X576498D01*
Y370752D01*
X584298D01*
Y378652D01*
X596102D01*
Y371148D01*
X588302D01*
Y363248D01*
G37*
G36*
G01X636702Y362848D02*
X624898D01*
Y370352D01*
X632698D01*
Y378252D01*
X644502D01*
Y370748D01*
X636702D01*
Y362848D01*
G37*
G36*
G01X536102Y362548D02*
X524298D01*
Y370052D01*
X532098D01*
Y377952D01*
X543902D01*
Y370448D01*
X536102D01*
Y362548D01*
G37*
G36*
G01X504192Y357616D02*
G02Y361418I-2192J1901D01*
G01X504193D01*
G02Y357616I-2193J-1901D01*
G01X504192D01*
G37*
G36*
G01X588302Y339548D02*
X576498D01*
Y347052D01*
X584298D01*
Y354952D01*
X596102D01*
Y347448D01*
X588302D01*
Y339548D01*
G37*
G36*
G01X636702Y339148D02*
X624898D01*
Y346652D01*
X632698D01*
Y354552D01*
X644502D01*
Y352702D01*
X646798D01*
Y355952D01*
X650602D01*
Y352702D01*
X654837D01*
G03X655220Y353216I0J400D01*
G02X655808Y355952I2780J834D01*
G02X656098Y356242I2192J-1902D01*
G02X659902I1902J-2192D01*
G02X660192Y355952I-1902J-2192D01*
G02X660780Y353216I-2192J-1902D01*
G03X661163Y352702I383J-114D01*
G01X669102D01*
Y352148D01*
X660192D01*
G02X655808I-2192J1902D01*
G01X644502D01*
Y347048D01*
X636702D01*
Y339148D01*
G37*
G36*
G01X536102Y338848D02*
X524298D01*
Y346352D01*
X532098D01*
Y354252D01*
X543902D01*
Y346748D01*
X536102D01*
Y338848D01*
G37*
G54D15*
X722600Y473932D03*
X537900Y464000D03*
X516300D03*
X665513Y462909D03*
X572700Y452000D03*
X646600Y450200D03*
X625000D03*
X665513Y443224D03*
X505657Y435645D03*
X596300Y432200D03*
X722561Y432121D03*
X673348D03*
X522345Y418957D03*
X648700Y412500D03*
X627100D03*
X596300Y412400D03*
X572700D03*
X477655Y407643D03*
X688800Y407200D03*
X667200D03*
X508344Y404956D03*
X494343Y390955D03*
G54D19*
X582400Y390700D03*
X630800Y390300D03*
X530200Y390000D03*
G54D17*
X405512Y413386D03*
G54D18*
X763780D03*
G54D20*
X658000Y359517D03*
X648700D03*
G54D16*
X658000Y457216D03*
X555048D03*
%LPD*%
G75*
G36*
G01X472150Y331054D02*
Y355750D01*
X460602D01*
Y362598D01*
X462202D01*
Y372748D01*
X478994D01*
Y331054D01*
X472150D01*
G37*
G36*
G01X578002Y347052D02*
Y349298D01*
X584298D01*
Y347052D01*
X578002D01*
G37*
G54D10*
X442900Y336500D03*
X458700D03*
Y368100D03*
X442900D03*
X486200Y336500D03*
Y368100D03*
X502000Y336500D03*
Y368100D03*
X667200Y336500D03*
Y368100D03*
X683000Y336500D03*
Y368100D03*
X710000Y336300D03*
X725800D03*
Y367900D03*
X710000D03*
G54D11*
X494343Y390955D03*
D03*
X477655Y407643D03*
D03*
X508344Y404956D03*
D03*
X522345Y418957D03*
D03*
X505657Y435645D03*
D03*
X516300Y464000D03*
D03*
X537900D03*
D03*
X572700Y412400D03*
D03*
Y452000D03*
D03*
X596300Y412400D03*
D03*
Y432200D03*
D03*
Y452000D03*
D03*
X627100Y412500D03*
D03*
X625000Y450200D03*
D03*
X622500Y481600D03*
D03*
X648700Y412500D03*
D03*
X667200Y407200D03*
D03*
X646600Y450200D03*
D03*
X665513Y462909D03*
D03*
Y453066D03*
D03*
Y443224D03*
D03*
X644100Y481600D03*
D03*
X688800Y407200D03*
D03*
X673348Y432121D03*
D03*
X673387Y473932D03*
D03*
X697994Y484011D03*
D03*
X688151D03*
D03*
X722561Y432121D03*
D03*
X707836Y484011D03*
D03*
X722600Y473932D03*
D03*
G54D12*
X502000Y359517D03*
D03*
X658000Y354050D03*
D03*
X725800D03*
D03*
G54D13*
X530200Y342600D03*
D03*
X538000Y350500D03*
D03*
X530200Y366300D03*
D03*
X538000Y374200D03*
D03*
X530200Y390000D03*
D03*
X582400Y367000D03*
D03*
Y343300D03*
D03*
Y390700D03*
D03*
X590200Y351200D03*
D03*
Y374900D03*
D03*
X630800Y342900D03*
D03*
X638600Y350800D03*
D03*
X630800Y366600D03*
D03*
X638600Y374500D03*
D03*
X630800Y390300D03*
D03*
G54D14*
G01X458700Y336500D02*
X457100D01*
Y362198D01*
X456398D01*
G01X442900Y336500D02*
X454798D01*
G01X458700Y330798D02*
Y336500D01*
G01D02*
Y342202D01*
G01Y336500D02*
X462402D01*
G01X442900Y368100D02*
Y374650D01*
X480896D01*
Y331500D01*
X576100D01*
Y351200D01*
X590200D01*
G01X458700Y368100D02*
Y353848D01*
X470248D01*
Y329152D01*
X644000D01*
Y350800D01*
G01X454798Y372348D02*
Y373100D01*
X461803D01*
Y359550D01*
G01X486200Y336500D02*
X498098D01*
G01X461803Y359550D02*
X462602D01*
G01X502000Y359517D02*
X532600D01*
G01X502000Y368100D02*
Y359517D01*
G01X508344Y404956D02*
Y413386D01*
G01D02*
X509388D01*
G01X722561Y432121D02*
Y457216D01*
X516300D01*
Y464000D01*
G01X530200Y338648D02*
Y342600D01*
G01D02*
X574550D01*
G01X530200D02*
Y346552D01*
G01X524098Y342600D02*
X530200D01*
G01D02*
X536302D01*
G01X538000Y350500D02*
X532600D01*
Y359517D01*
G01D02*
X688800D01*
Y407200D01*
G01X707836Y484011D02*
Y479861D01*
X673136D01*
Y485750D01*
X555048D01*
Y374200D01*
X538000D01*
G01X590200Y374900D02*
X555800D01*
Y405457D01*
X522345D01*
Y418957D01*
G01X521351Y464000D02*
X537900D01*
G01X536593Y468606D02*
X537900D01*
Y464000D01*
G01D02*
Y468852D01*
G01Y464000D02*
X542752D01*
G01X576298Y343300D02*
X582400D01*
G01Y339348D02*
Y343300D01*
G01X588702D02*
X582400D01*
G01X630800Y342900D02*
X588702D01*
G01X582400Y347252D02*
Y343300D01*
G01D02*
Y347252D01*
G01Y343300D02*
X588502D01*
G01X658000Y354050D02*
X613448D01*
Y351200D01*
X590200D01*
G01X596300Y432200D02*
X584646D01*
G01X638600Y374500D02*
X610548D01*
Y452000D01*
X596300D01*
G01X630800Y338948D02*
Y342900D01*
G01Y338948D02*
Y342900D01*
G01D02*
Y346852D01*
G01Y342900D02*
X636902D01*
G01X630800D02*
Y346852D01*
G01X624698Y342900D02*
X630800D01*
G01D02*
X636902D01*
G01X644000Y350800D02*
X638600D01*
G01X627100Y412500D02*
X622432D01*
G01X625000Y450200D02*
Y454763D01*
X626307D01*
G01X622500Y481600D02*
Y477042D01*
X623829D01*
G01X617648Y481600D02*
X622500D01*
G01D02*
X627352D01*
G01X667200Y336500D02*
Y350800D01*
X648700D01*
G01X725800Y354050D02*
X658000D01*
G01X644100Y481600D02*
X658000D01*
Y354050D01*
G01X648700Y412500D02*
Y350800D01*
G01D02*
X644000D01*
G01X667200Y407200D02*
Y413386D01*
G01D02*
X668402D01*
G01X646600Y450200D02*
Y416650D01*
X648700D01*
Y412500D01*
G01X710000Y336300D02*
X686902D01*
G01X683000Y368100D02*
X671102D01*
G01X725800Y367900D02*
Y354050D01*
M02*
