G04 ================== begin FILE IDENTIFICATION RECORD ==================*
G04 Layout Name:  D:/LayoutPCB/pedal_3D_zoom_control_bluetooth/test.brd*
G04 Film Name:    arttop-layer1*
G04 File Format:  Gerber RS274X*
G04 File Origin:  Cadence Allegro 16.6-P004*
G04 Origin Date:  Mon Aug 18 10:59:09 2014*
G04 *
G04 Layer:  VIA CLASS/TOP*
G04 Layer:  PIN/TOP*
G04 Layer:  ETCH/TOP*
G04 Layer:  DRAWING FORMAT/OUTLINE*
G04 Layer:  DRAWING FORMAT/TITLE_BLOCK*
G04 Layer:  DRAWING FORMAT/TITLE_DATA*
G04 Layer:  DRAWING FORMAT/REVISION_BLOCK*
G04 Layer:  DRAWING FORMAT/REVISION_DATA*
G04 Layer:  BOARD GEOMETRY/OUTLINE*
G04 *
G04 Offset:    (0.00 0.00)*
G04 Mirror:    No*
G04 Mode:      Positive*
G04 Rotation:  0*
G04 FullContactRelief:  No*
G04 UndefLineWidth:     2.00*
G04 ================== end FILE IDENTIFICATION RECORD ====================*
%FSLAX25Y25*MOIN*%
%IR0*IPPOS*OFA0.00000B0.00000*MIA0B0*SFA1.00000B1.00000*%
%ADD11C,.028*%
%ADD10C,.06299*%
%ADD12R,.088X.045*%
%ADD13C,.002*%
%ADD14C,.008*%
%ADD15C,.09302*%
%ADD16R,.11804X.07504*%
%ADD18C,.13814*%
%ADD17C,.13815*%
G75*
%LPD*%
G75*
G36*
G01X417387Y324867D02*
Y340351D01*
G03X413186Y344552I-4201J0D01*
G01X397702D01*
Y482219D01*
X413186D01*
G03X417387Y486420I0J4201D01*
G01Y501905D01*
X751905D01*
Y486420D01*
G03X756106Y482219I4201J0D01*
G01X771590D01*
Y344552D01*
X756106D01*
G03X751905Y340351I0J-4201D01*
G01Y324867D01*
X417387D01*
G37*
%LPC*%
G75*
G36*
G01X536102Y362548D02*
X524298D01*
Y370052D01*
X532098D01*
Y377952D01*
X543902D01*
Y370448D01*
X536102D01*
Y362548D01*
G37*
G36*
G01X636702Y362848D02*
X624898D01*
Y370352D01*
X632698D01*
Y378252D01*
X644502D01*
Y370748D01*
X636702D01*
Y362848D01*
G37*
G36*
G01X724462Y436366D02*
G02X720660I-1901J-4245D01*
G01Y455314D01*
X670214D01*
G03X669841Y454768I-1J-400D01*
G02X661185I-4328J-1702D01*
G03X660812Y455314I-372J146D01*
G01X600425D01*
G03X600099Y454684I1J-400D01*
G02X592501I-3799J-2684D01*
G03X592175Y455314I-327J230D01*
G01X576825D01*
G03X576499Y454684I1J-400D01*
G02X568901I-3799J-2684D01*
G03X568575Y455314I-327J230D01*
G01X514398D01*
Y459755D01*
G02X518202I1902J4245D01*
G01Y459118D01*
X535572D01*
G03X535756Y459872I-1J400D01*
G02X540044I2144J4128D01*
G03X540228Y459118I185J-354D01*
G01X661770D01*
G03X662066Y459786I0J400D01*
G02X668960I3447J3123D01*
G03X669256Y459118I296J-268D01*
G01X724462D01*
Y436366D01*
G37*
G36*
G01X588302Y363248D02*
X576498D01*
Y370752D01*
X584298D01*
Y372998D01*
X553898D01*
Y403556D01*
X520444D01*
Y414712D01*
G02X524246I1901J4245D01*
G01Y407358D01*
X557702D01*
Y376802D01*
X584298D01*
Y378652D01*
X596102D01*
Y371148D01*
X588302D01*
Y363248D01*
G37*
G36*
G01X636702Y339148D02*
X624898D01*
Y346652D01*
X632698D01*
Y352148D01*
X615350D01*
Y349298D01*
X596102D01*
Y347448D01*
X588302D01*
Y339548D01*
X576498D01*
Y347052D01*
X584298D01*
Y354952D01*
X596102D01*
Y353102D01*
X611546D01*
Y355952D01*
X655808D01*
G02X660192I2192J-1902D01*
G01X723608D01*
G02Y352148I2192J-1902D01*
G01X660192D01*
G02X655808I-2192J1902D01*
G01X644502D01*
Y347048D01*
X636702D01*
Y339148D01*
G37*
G36*
G01X536102Y338848D02*
X524298D01*
Y346352D01*
X532098D01*
Y348598D01*
X530698D01*
Y357616D01*
X504192D01*
G02Y361418I-2192J1901D01*
G01X686898D01*
Y402955D01*
G02X690702I1902J4245D01*
G01Y357616D01*
X534502D01*
Y354252D01*
X543902D01*
Y346748D01*
X536102D01*
Y338848D01*
G37*
G54D15*
X722600Y473932D03*
X707836Y484011D03*
X688151D03*
X697994D03*
X673387Y473932D03*
X673348Y432121D03*
X644100Y481600D03*
X665513Y443224D03*
X646600Y450200D03*
X667200Y407200D03*
X648700Y412500D03*
X622500Y481600D03*
X625000Y450200D03*
X627100Y412500D03*
X596300Y432200D03*
Y412400D03*
X572700D03*
X505657Y435645D03*
X508344Y404956D03*
X477655Y407643D03*
X494343Y390955D03*
G54D16*
X630800Y390300D03*
X582400Y390700D03*
X530200Y390000D03*
G54D18*
X405512Y413386D03*
G54D17*
X763780D03*
X584646Y494094D03*
%LPD*%
G75*
G54D10*
X494343Y390955D03*
X477655Y407643D03*
X508344Y404956D03*
X522345Y418957D03*
X505657Y435645D03*
X516300Y464000D03*
X537900D03*
X572700Y412400D03*
Y452000D03*
X596300Y412400D03*
Y432200D03*
Y452000D03*
X627100Y412500D03*
X625000Y450200D03*
X622500Y481600D03*
X648700Y412500D03*
X667200Y407200D03*
X646600Y450200D03*
X665513Y462909D03*
Y453066D03*
Y443224D03*
X644100Y481600D03*
X688800Y407200D03*
X673348Y432121D03*
X673387Y473932D03*
X697994Y484011D03*
X688151D03*
X722561Y432121D03*
X707836Y484011D03*
X722600Y473932D03*
G54D11*
X502000Y359517D03*
X658000Y354050D03*
X725800D03*
G54D12*
X530200Y342600D03*
X538000Y350500D03*
X530200Y366300D03*
X538000Y374200D03*
X530200Y390000D03*
X582400Y367000D03*
Y343300D03*
Y390700D03*
X590200Y351200D03*
Y374900D03*
X630800Y342900D03*
X638600Y350800D03*
X630800Y366600D03*
X638600Y374500D03*
X630800Y390300D03*
G54D13*
G01X415386Y503906D02*
X753906D01*
Y486420D01*
G03X756106Y484220I2200J0D01*
G01X773591D01*
Y342551D01*
X756106D01*
G03X753906Y340351I0J-2200D01*
G01Y322866D01*
X415386D01*
Y340351D01*
G03X413186Y342551I-2200J0D01*
G01X395701D01*
Y484220D01*
X413186D01*
G03X415386Y486420I0J2200D01*
G01Y503906D01*
G01X411417Y413386D02*
G03I-5905J0D01*
G01X426270Y436108D02*
G02Y436391I141J141D01*
G01X440189Y422472D02*
G02X439907I-141J142D01*
G01X476237Y486079D02*
G02X476519I141J-142D01*
G01X490016Y472582D02*
G02Y472300I-142J-141D01*
G01X590551Y494094D02*
G03I-5905J0D01*
G01X769685Y413386D02*
G03I-5905J0D01*
G54D14*
G01X502000Y359517D02*
X532600D01*
G01X508344Y404956D02*
Y413386D01*
G01D02*
X509388D01*
G01X722561Y432121D02*
Y457216D01*
X516300D01*
Y464000D01*
G01X530200Y338648D02*
Y342600D01*
G01D02*
Y346552D01*
G01X524098Y342600D02*
X530200D01*
G01D02*
X536302D01*
G01X538000Y350500D02*
X532600D01*
Y359517D01*
G01D02*
X688800D01*
Y407200D01*
G01X590200Y374900D02*
X555800D01*
Y405457D01*
X522345D01*
Y418957D01*
G01X521351Y464000D02*
X537900D01*
G01D02*
Y468852D01*
G01Y464000D02*
X542752D01*
G01X576298Y343300D02*
X582400D01*
G01Y339348D02*
Y343300D01*
G01D02*
Y347252D01*
G01Y343300D02*
X588502D01*
G01X658000Y354050D02*
X613448D01*
Y351200D01*
X590200D01*
G01X630800Y338948D02*
Y342900D01*
G01D02*
Y346852D01*
G01X624698Y342900D02*
X630800D01*
G01D02*
X636902D01*
G01X627100Y412500D02*
X622432D01*
G01X725800Y354050D02*
X658000D01*
G01X667200Y407200D02*
Y413386D01*
G01D02*
X668402D01*
M02*
