M48
INCH
T01C.03
%
G90
F1
M16
T01
M16
G00X0629338Y0342900
G40
M15
G01X0632262Y0342900
M16
G00X0629338Y0366600
G40
M15
G01X0632262Y0366600
M16
G00X0629338Y0390300
G40
M15
G01X0632262Y0390300
M16
G00X0637138Y0374500
G40
M15
G01X0640062Y0374500
M16
G00X0637138Y0350800
G40
M15
G01X0640062Y0350800
M16
G00X0580938Y0343300
G40
M15
G01X0583862Y0343300
M16
G00X0580938Y0367000
G40
M15
G01X0583862Y0367000
M16
G00X0580938Y0390700
G40
M15
G01X0583862Y0390700
M16
G00X0588738Y0374900
G40
M15
G01X0591662Y0374900
M16
G00X0588738Y0351200
G40
M15
G01X0591662Y0351200
M16
G00X0528738Y0342600
G40
M15
G01X0531662Y0342600
M16
G00X0528738Y0366300
G40
M15
G01X0531662Y0366300
M16
G00X0528738Y0390000
G40
M15
G01X0531662Y0390000
M16
G00X0536538Y0374200
G40
M15
G01X0539462Y0374200
M16
G00X0536538Y0350500
G40
M15
G01X0539462Y0350500
M16
G40
M30
