G04 ================== begin FILE IDENTIFICATION RECORD ==================*
G04 Layout Name:  D:/LayoutPCB/pedal_control_pcb/pedal.brd*
G04 Film Name:    buttom-layer2*
G04 File Format:  Gerber RS274X*
G04 File Origin:  Cadence Allegro 16.6-P004*
G04 Origin Date:  Mon Jul 21 11:36:12 2014*
G04 *
G04 Layer:  VIA CLASS/BOTTOM*
G04 Layer:  PIN/BOTTOM*
G04 Layer:  ETCH/BOTTOM*
G04 Layer:  DRAWING FORMAT/OUTLINE*
G04 Layer:  DRAWING FORMAT/TITLE_BLOCK*
G04 Layer:  DRAWING FORMAT/TITLE_DATA*
G04 Layer:  DRAWING FORMAT/REVISION_BLOCK*
G04 Layer:  DRAWING FORMAT/REVISION_DATA*
G04 Layer:  BOARD GEOMETRY/OUTLINE*
G04 *
G04 Offset:    (0.00 0.00)*
G04 Mirror:    No*
G04 Mode:      Positive*
G04 Rotation:  0*
G04 FullContactRelief:  No*
G04 UndefLineWidth:     2.00*
G04 ================== end FILE IDENTIFICATION RECORD ====================*
%FSLAX25Y25*MOIN*%
%IR0*IPPOS*OFA0.00000B0.00000*MIA0B0*SFA1.00000B1.00000*%
%ADD10C,.06*%
%ADD11C,.028*%
%ADD12R,.065X.099*%
%ADD13C,.002*%
%ADD14C,.008*%
%ADD17C,.09004*%
%ADD18R,.09504X.12904*%
%ADD16C,.11815*%
%ADD15C,.11816*%
G75*
%LPD*%
G75*
G36*
G01X3935Y57D02*
Y71572D01*
X8983Y74486D01*
Y107138D01*
X3935Y110052D01*
Y191715D01*
X140356D01*
Y57D01*
X117202D01*
Y42248D01*
X120052D01*
Y50048D01*
X127952D01*
Y62952D01*
X118448D01*
Y55152D01*
X110548D01*
Y42248D01*
X113398D01*
Y3702D01*
X97698D01*
G02X97323Y4240I0J400D01*
G03X88877I-4223J1560D01*
G02X88502Y3702I-375J-138D01*
G01X61502D01*
Y9419D01*
G03X63228Y10834I-1902J4081D01*
G02X63872I322J-237D01*
G03X71723Y15060I3628J2666D01*
G02X72098Y15598I375J138D01*
G01X78702D01*
G02X79077Y15060I0J-400D01*
G03X87381Y11598I4223J-1560D01*
G01X108752D01*
Y70096D01*
X117202D01*
Y82248D01*
X120052D01*
Y90048D01*
X127952D01*
Y102952D01*
X118448D01*
Y95152D01*
X110548D01*
Y82248D01*
X113398D01*
Y73900D01*
X107202D01*
Y96096D01*
X116202D01*
Y122248D01*
X119052D01*
Y130048D01*
X126952D01*
Y142952D01*
X117448D01*
Y135152D01*
X109548D01*
Y122248D01*
X112398D01*
Y99900D01*
X104252D01*
Y102952D01*
X94748D01*
Y95152D01*
X86848D01*
Y82248D01*
X89698D01*
Y63290D01*
X85492D01*
G03X80855Y62952I-2192J-1901D01*
G01X71048D01*
Y50048D01*
X80552D01*
Y59068D01*
G02X81236Y59349I400J0D01*
G03X81398Y59197I2065J2039D01*
G01Y25581D01*
G03X79077Y19940I1902J-4081D01*
G02X78702Y19402I-375J-138D01*
G01X72098D01*
G02X71723Y19940I0J400D01*
G03X69402Y25581I-4223J1560D01*
G01Y54402D01*
X42381D01*
G03X36739Y56723I-4081J-1902D01*
G02X36200Y57098I-139J375D01*
G01Y127902D01*
G02X36739Y128277I400J0D01*
G03Y136723I1561J4223D01*
G02X36200Y137098I-139J375D01*
G01Y152902D01*
G02X36739Y153277I400J0D01*
G03X42016Y154959I1561J4223D01*
G02X42746Y154733I330J-226D01*
G01Y143896D01*
X88698D01*
Y135152D01*
X85848D01*
Y122248D01*
X95352D01*
Y130048D01*
X103252D01*
Y142952D01*
X93748D01*
Y135152D01*
X92502D01*
Y147700D01*
X46550D01*
Y164200D01*
X14798D01*
Y161581D01*
G03X12619Y159402I1902J-4081D01*
G01X10798D01*
Y19598D01*
X47619D01*
G03X49098Y17826I4080J1903D01*
G02Y17174I-232J-326D01*
G03X55328Y10834I2602J-3674D01*
G02X55972I322J-237D01*
G03X57698Y9419I3628J2666D01*
G01Y57D01*
X3935D01*
G37*
G36*
G01X14602Y23402D02*
Y47902D01*
G02X15140Y48277I400J0D01*
G03Y56723I1560J4223D01*
G02X14602Y57098I-138J375D01*
G01Y127902D01*
G02X15140Y128277I400J0D01*
G03Y136723I1560J4223D01*
G02X14602Y137098I-138J375D01*
G01Y152902D01*
G02X15140Y153277I400J0D01*
G03X20574Y159793I1560J4223D01*
G02X20919Y160396I344J203D01*
G01X34081D01*
G02X34426Y159793I1J-400D01*
G03X34219Y159402I3871J-2299D01*
G01X32398D01*
Y83602D01*
X26581D01*
G03Y79798I-4081J-1902D01*
G01X32398D01*
Y50598D01*
X34219D01*
G03X42381I4081J1902D01*
G01X65598D01*
Y25581D01*
G03X63872Y24166I1902J-4081D01*
G02X63228I-322J237D01*
G03X55972I-3628J-2666D01*
G02X55328I-322J237D01*
G03X47619Y23402I-3628J-2666D01*
G01X14602D01*
G37*
G36*
G01X87523Y19940D02*
G03X85202Y25581I-4223J1560D01*
G01Y59197D01*
G03X85492Y59488I-1905J2189D01*
G01X93502D01*
Y82248D01*
X96352D01*
Y90048D01*
X103398D01*
Y62952D01*
X94748D01*
Y55152D01*
X86848D01*
Y42248D01*
X96352D01*
Y50048D01*
X103398D01*
Y19402D01*
X87898D01*
G02X87523Y19940I0J400D01*
G37*
%LPC*%
G75*
G54D17*
X52700Y155700D03*
Y179300D03*
X92300Y155700D03*
X72500D03*
X92300Y179300D03*
X22500Y103300D03*
X41900Y29300D03*
G54D18*
X75800Y96500D03*
X74800Y136500D03*
G54D16*
X130311Y8135D03*
Y185300D03*
G54D15*
X12201Y8135D03*
Y185300D03*
%LPD*%
G75*
G54D10*
X38300Y52500D03*
X16700D03*
X22500Y81700D03*
Y103300D03*
X38300Y132500D03*
X16700D03*
X38300Y157500D03*
X16700D03*
X67500Y13500D03*
X59600D03*
X51700D03*
Y21500D03*
X59600D03*
X67500D03*
X41900Y29300D03*
X52700Y155700D03*
Y179300D03*
X93100Y5800D03*
X83300Y13500D03*
Y21500D03*
X92300Y155700D03*
X72500D03*
X92300Y179300D03*
G54D11*
X31699Y132946D03*
X57699Y31400D03*
X83300Y61389D03*
G54D12*
X91600Y48700D03*
X75800Y56500D03*
X99500D03*
X91600Y88700D03*
X75800Y96500D03*
X99500D03*
X90600Y128700D03*
X74800Y136500D03*
X98500D03*
X115300Y48700D03*
X123200Y56500D03*
X115300Y88700D03*
X123200Y96500D03*
X114300Y128700D03*
X122200Y136500D03*
G54D13*
G01X18107Y8135D02*
G03I-5906J0D01*
G01X140357Y191716D02*
Y56D01*
X3934D01*
Y71573D01*
X8982Y74487D01*
Y107137D01*
X3934Y110051D01*
Y191716D01*
X140357D01*
G01X18107Y185300D02*
G03I-5906J0D01*
G01X136217Y8135D02*
G03I-5906J0D01*
G01Y185300D02*
G03I-5906J0D01*
G54D14*
G01X51700Y21500D02*
X12700D01*
Y157500D01*
X16700D01*
G01X38300Y52500D02*
X34299D01*
Y81700D01*
G01D02*
Y157500D01*
X38300D01*
G01X22500Y81700D02*
X34299D01*
G01X27500Y132961D02*
Y132946D01*
X31699D01*
G01X90600Y128700D02*
Y145798D01*
X44648D01*
Y162298D01*
X16700D01*
Y157500D01*
G01X67500Y21500D02*
Y52500D01*
X38300D01*
G01X59600Y13500D02*
Y1800D01*
X115300D01*
Y48700D01*
G01X114300Y128700D02*
Y97998D01*
X105300D01*
Y17500D01*
X51700D01*
Y13500D01*
G01X46715Y30623D02*
Y31400D01*
X57699D01*
G01X38300Y127798D02*
Y132500D01*
G01D02*
Y137202D01*
G01Y132500D02*
X43002D01*
G01X67798Y155700D02*
X72500D01*
G01X83300Y21500D02*
Y61389D01*
G01Y13500D02*
X106850D01*
Y71998D01*
X115300D01*
Y88700D01*
G01X83300Y61389D02*
X91600D01*
Y88700D01*
G01X96752Y63352D02*
X103750D01*
Y102552D01*
X104652D01*
G01X73778Y160158D02*
X72500D01*
Y155700D01*
G01Y150998D02*
Y155700D01*
G01D02*
X77202D01*
G01X111252Y6560D02*
Y22975D01*
X109702D01*
Y63352D01*
X111252D01*
G01X123200Y49848D02*
Y56500D01*
G01D02*
X111252D01*
G01X123200D02*
Y63152D01*
G01Y56500D02*
X128152D01*
G01X123200Y96500D02*
Y121848D01*
G01Y89848D02*
Y96500D01*
G01X118248D02*
X123200D01*
G01D02*
X128152D01*
G01X127152Y136500D02*
X122200D01*
G01Y129848D02*
Y136500D01*
G01D02*
Y143152D01*
G01X117248Y136500D02*
X122200D01*
M02*
