G04 ================== begin FILE IDENTIFICATION RECORD ==================*
G04 Layout Name:  test.brd*
G04 Film Name:    art-testtop-layer1*
G04 File Format:  Gerber RS274X*
G04 File Origin:  Cadence Allegro 16.6-P004*
G04 Origin Date:  Wed Nov 26 10:50:49 2014*
G04 *
G04 Layer:  VIA CLASS/TOP*
G04 Layer:  PIN/TOP*
G04 Layer:  ETCH/TOP*
G04 Layer:  DRAWING FORMAT/OUTLINE*
G04 Layer:  DRAWING FORMAT/TITLE_BLOCK*
G04 Layer:  DRAWING FORMAT/TITLE_DATA*
G04 Layer:  DRAWING FORMAT/REVISION_BLOCK*
G04 Layer:  DRAWING FORMAT/REVISION_DATA*
G04 Layer:  BOARD GEOMETRY/OUTLINE*
G04 *
G04 Offset:    (0.00 0.00)*
G04 Mirror:    No*
G04 Mode:      Positive*
G04 Rotation:  0*
G04 FullContactRelief:  No*
G04 UndefLineWidth:     6.00*
G04 ================== end FILE IDENTIFICATION RECORD ====================*
%FSLAX25Y25*MOIN*%
%IR0*IPPOS*OFA0.00000B0.00000*MIA0B0*SFA1.00000B1.00000*%
%ADD11C,.028*%
%ADD10C,.06299*%
%ADD12R,.09842X.045*%
%ADD13C,.006*%
%ADD14C,.008*%
%ADD17C,.09302*%
%ADD19R,.12844X.07502*%
%ADD18R,.12846X.07502*%
%ADD15C,.13814*%
%ADD16C,.13815*%
G75*
%LPD*%
G75*
G36*
G01X1987Y1967D02*
Y17451D01*
G03X-2214Y21652I-4201J0D01*
G01X-17698D01*
Y159319D01*
X-2214D01*
G03X1987Y163520I0J4201D01*
G01Y179005D01*
X336505D01*
Y163520D01*
G03X340706Y159319I4201J0D01*
G01X356190D01*
Y21652D01*
X340706D01*
G03X336505Y17451I0J-4201D01*
G01Y1967D01*
X1987D01*
G37*
%LPC*%
G75*
G36*
G01X136442Y18618D02*
X123598D01*
Y20468D01*
X122198D01*
Y30234D01*
X88792D01*
G02Y34038I-2192J1902D01*
G01X112180D01*
Y40688D01*
X123598D01*
Y48168D01*
X136442D01*
Y46318D01*
X142492D01*
Y43768D01*
X146440D01*
Y94156D01*
X111190D01*
G02Y97958I-4245J1901D01*
G01X150242D01*
Y47018D01*
X175798D01*
Y48868D01*
X188642D01*
Y43768D01*
X195540D01*
Y115272D01*
X253912D01*
Y116587D01*
G03X253242Y116883I-400J1D01*
G02Y123765I-3129J3441D01*
G03X253912Y124061I270J295D01*
G01Y126429D01*
G03X253242Y126725I-400J1D01*
G02X245868Y128264I-3129J3441D01*
G01X238098D01*
Y133958D01*
X183274D01*
G03X183086Y133205I0J-400D01*
G02X178714I-2186J-4105D01*
G03X178526Y133958I-188J353D01*
G01X159674D01*
G03X159486Y133205I0J-400D01*
G02X155114I-2186J-4105D01*
G03X154926Y133958I-188J353D01*
G01X98998D01*
Y136855D01*
G02X104683Y138394I1902J4245D01*
G03X105008Y137762I325J-232D01*
G01X118392D01*
G03X118717Y138394I0J400D01*
G02X126283I3783J2706D01*
G03X126608Y137762I325J-232D01*
G01X241902D01*
Y132068D01*
X245868D01*
G02X253242Y133607I4245J-1902D01*
G03X253912Y133903I270J295D01*
G01Y136272D01*
G03X253242Y136568I-400J1D01*
G02X254358Y141910I-3129J3441D01*
G01X257714D01*
Y114072D01*
G03X257916Y113872I200J0D01*
G02X253620Y110923I32J-4651D01*
G03X253247Y111470I-372J147D01*
G01X199342D01*
Y39966D01*
X177226D01*
Y34038D01*
X212780D01*
Y40988D01*
X224198D01*
Y48468D01*
X237042D01*
Y40966D01*
X225626D01*
Y34038D01*
X271498D01*
Y80055D01*
G02X275302I1902J4245D01*
G01Y30234D01*
X126000D01*
Y26120D01*
X136442D01*
Y18618D01*
G37*
G54D17*
X78943Y68055D03*
X62255Y84743D03*
X92944Y82056D03*
X90257Y112745D03*
X157300Y89500D03*
X180900D03*
Y109300D03*
X211700Y89600D03*
X209600Y127300D03*
X207100Y158700D03*
X233300Y89600D03*
X251800Y84300D03*
X231200Y127300D03*
X228700Y158700D03*
X257987Y151032D03*
X282594Y161111D03*
X272751D03*
X307161Y109221D03*
X292436Y161111D03*
X307200Y151032D03*
G54D19*
X182220Y23069D03*
X230620Y22669D03*
G54D18*
X118603Y12527D03*
Y58983D03*
X170803Y13227D03*
Y59683D03*
X219203Y12827D03*
Y59283D03*
G54D15*
X-9888Y90486D03*
G54D16*
X169246Y171194D03*
X348380Y90486D03*
%LPD*%
G75*
G36*
G01X125026Y34038D02*
Y40666D01*
X136442D01*
Y42516D01*
X138690D01*
Y39966D01*
X164380D01*
Y34038D01*
X125026D01*
G37*
G54D10*
X78943Y68055D03*
X62255Y84743D03*
X92944Y82056D03*
X106945Y96057D03*
X90257Y112745D03*
X100900Y141100D03*
X122500D03*
X157300Y89500D03*
Y129100D03*
X180900Y89500D03*
Y109300D03*
Y129100D03*
X211700Y89600D03*
X209600Y127300D03*
X207100Y158700D03*
X233300Y89600D03*
X251800Y84300D03*
X231200Y127300D03*
X250113Y140009D03*
Y130166D03*
Y120324D03*
X228700Y158700D03*
X273400Y84300D03*
X257948Y109221D03*
X257987Y151032D03*
X282594Y161111D03*
X272751D03*
X307161Y109221D03*
X292436Y161111D03*
X307200Y151032D03*
G54D11*
X86600Y32136D03*
X267600Y84300D03*
X294600Y7200D03*
G54D12*
X118603Y12527D03*
X130020Y22369D03*
Y44417D03*
X118603Y36936D03*
Y58983D03*
X170803Y13227D03*
X182220Y23069D03*
Y45117D03*
X170803Y37636D03*
Y59683D03*
X219203Y12827D03*
Y37236D03*
Y59283D03*
X230620Y22669D03*
Y44717D03*
G54D13*
G01X-14Y181006D02*
X338506D01*
Y163520D01*
G03X340706Y161320I2200J0D01*
G01X358191D01*
Y19651D01*
X340706D01*
G03X338506Y17451I0J-2200D01*
G01Y-34D01*
X-14D01*
Y17451D01*
G03X-2214Y19651I-2200J0D01*
G01X-19699D01*
Y161320D01*
X-2214D01*
G03X-14Y163520I0J2200D01*
G01Y181006D01*
G54D14*
G01X124099Y32136D02*
X86600D01*
G01X92944Y77204D02*
Y82056D01*
G01D02*
Y86908D01*
G01X88092Y82056D02*
X92944D01*
G01D02*
X97796D01*
G01X250113Y130166D02*
X240000D01*
Y135860D01*
X100900D01*
Y141100D01*
G01X118603Y12527D02*
X164882D01*
Y13227D01*
X170803D01*
G01X118603Y8575D02*
Y12527D01*
G01D02*
Y16479D01*
G01X111980Y12527D02*
X118603D01*
G01X130020Y22369D02*
X124099D01*
Y32136D01*
G01X273400Y84300D02*
Y32136D01*
X124099D01*
G01X250113Y140009D02*
X255813D01*
Y113371D01*
X197441D01*
Y41867D01*
X140591D01*
Y44417D01*
X130020D01*
G01X106945Y96057D02*
X148341D01*
Y45117D01*
X182220D01*
G01X122500Y141100D02*
Y145952D01*
G01X117648Y141100D02*
X122500D01*
G01D02*
X127352D01*
G01X170803Y13227D02*
X213282D01*
Y12827D01*
X219203D01*
G01X170803Y9275D02*
Y13227D01*
G01D02*
Y17179D01*
G01X180900Y104448D02*
Y109300D01*
G01D02*
Y114152D01*
G01X176048Y109300D02*
X180900D01*
G01D02*
X185752D01*
G01X294600Y12827D02*
X219203D01*
G01Y8875D02*
Y12827D01*
G01D02*
Y16779D01*
G01X251800Y84300D02*
X211700D01*
G01D02*
Y89600D01*
G01D02*
Y94452D01*
G01X206848Y89600D02*
X211700D01*
G01D02*
X216552D01*
G01X209600Y122448D02*
Y127300D01*
G01D02*
Y132152D01*
G01X204748Y127300D02*
X209600D01*
G01D02*
X214452D01*
G01X207100Y153848D02*
Y158700D01*
G01D02*
Y163552D01*
G01X202248Y158700D02*
X207100D01*
G01D02*
X211952D01*
G01X267600Y84300D02*
X251800D01*
G01Y79448D02*
Y84300D01*
G01D02*
Y89152D01*
G01X294600Y7200D02*
Y12827D01*
M02*
