G04 ================== begin FILE IDENTIFICATION RECORD ==================*
G04 Layout Name:  test.brd*
G04 Film Name:    art-testsilkbtm*
G04 File Format:  Gerber RS274X*
G04 File Origin:  Cadence Allegro 16.6-P004*
G04 Origin Date:  Wed Nov 26 10:50:49 2014*
G04 *
G04 Layer:  REF DES/SILKSCREEN_BOTTOM*
G04 Layer:  PACKAGE GEOMETRY/SILKSCREEN_BOTTOM*
G04 Layer:  DRAWING FORMAT/OUTLINE*
G04 Layer:  DRAWING FORMAT/TITLE_DATA*
G04 Layer:  BOARD GEOMETRY/OUTLINE*
G04 Layer:  BOARD GEOMETRY/SILKSCREEN_BOTTOM*
G04 *
G04 Offset:    (0.00 0.00)*
G04 Mirror:    No*
G04 Mode:      Positive*
G04 Rotation:  0*
G04 FullContactRelief:  No*
G04 UndefLineWidth:     6.00*
G04 ================== end FILE IDENTIFICATION RECORD ====================*
%FSLAX25Y25*MOIN*%
%IR0*IPPOS*OFA0.00000B0.00000*MIA0B0*SFA1.00000B1.00000*%
%ADD10C,.006*%
G75*
%LPD*%
G75*
G36*
G01X102855Y62920D02*
X134745D01*
Y7802D01*
X102855D01*
Y62920D01*
G37*
G36*
G01D02*
X134745D01*
Y7802D01*
X102855D01*
Y62920D01*
G37*
G36*
G01X155055Y63620D02*
X186945D01*
Y8502D01*
X155055D01*
Y63620D01*
G37*
G36*
G01D02*
X186945D01*
Y8502D01*
X155055D01*
Y63620D01*
G37*
G36*
G01X203455Y63220D02*
X235345D01*
Y8102D01*
X203455D01*
Y63220D01*
G37*
G36*
G01D02*
X235345D01*
Y8102D01*
X203455D01*
Y63220D01*
G37*
G54D10*
G01X-14Y181006D02*
X338506D01*
Y163520D01*
G03X340706Y161320I2200J0D01*
G01X358191D01*
Y19651D01*
X340706D01*
G03X338506Y17451I0J-2200D01*
G01Y-34D01*
X-14D01*
Y17451D01*
G03X-2214Y19651I-2200J0D01*
G01X-19699D01*
Y161320D01*
X-2214D01*
G03X-14Y163520I0J2200D01*
G01Y181006D01*
G01X30400Y6793D02*
X33983D01*
X34733Y6540D01*
X35233Y6033D01*
X35400Y5400D01*
X35233Y4767D01*
X34733Y4260D01*
X33983Y4007D01*
X30400D01*
G01X34817Y1377D02*
X35233Y933D01*
X35400Y427D01*
X35233Y-80D01*
X34733Y-523D01*
X33983Y-840D01*
X33233Y-967D01*
X32317D01*
X31567Y-840D01*
X30900Y-523D01*
X30567Y-143D01*
X30400Y300D01*
X30567Y807D01*
X30900Y1187D01*
X31400Y1440D01*
X32067Y1567D01*
X32650Y1440D01*
X33233Y1123D01*
X33567Y743D01*
X33650Y300D01*
X33483Y-207D01*
X33067Y-587D01*
X32317Y-967D01*
G01X47200Y41200D02*
Y17600D01*
X23600D01*
Y41200D01*
X47200D01*
G01X73700Y6793D02*
X77283D01*
X78033Y6540D01*
X78533Y6033D01*
X78700Y5400D01*
X78533Y4767D01*
X78033Y4260D01*
X77283Y4007D01*
X73700D01*
G01X76617Y1503D02*
X76033Y1060D01*
X75700Y680D01*
X75533Y173D01*
X75700Y-270D01*
X76033Y-587D01*
X76533Y-840D01*
X77117Y-903D01*
X77617Y-840D01*
X78117Y-587D01*
X78533Y-207D01*
X78700Y237D01*
X78533Y743D01*
X78033Y1187D01*
X77283Y1440D01*
X76450Y1503D01*
X75367Y1377D01*
X74783Y1187D01*
X74200Y870D01*
X73783Y427D01*
X73700Y-17D01*
X73867Y-460D01*
X74283Y-777D01*
G01X90500Y41200D02*
Y17600D01*
X66900D01*
Y41200D01*
X90500D01*
G01X83186Y63813D02*
X58013Y88986D01*
X86014Y116987D01*
X111187Y91814D01*
X83186Y63813D01*
G01X76039Y106032D02*
X73505Y103498D01*
X72796Y103147D01*
X72084Y103151D01*
X71519Y103481D01*
X71188Y104047D01*
X71184Y104759D01*
X71535Y105468D01*
X74069Y108002D01*
G01X68002Y106998D02*
X68679Y107853D01*
X69192Y108636D01*
X69603Y109404D01*
X70027Y110277D01*
X70552Y111519D01*
X72344Y109727D01*
G01X122200Y133100D02*
X101200D01*
Y149100D01*
X122200D01*
Y133100D01*
G01X106454Y7755D02*
X131855D01*
Y-44D01*
X106454D01*
Y7755D01*
G01X124807Y41700D02*
Y45283D01*
X125060Y46033D01*
X125567Y46533D01*
X126200Y46700D01*
X126833Y46533D01*
X127340Y46033D01*
X127593Y45283D01*
Y41700D01*
G01X131300Y46700D02*
Y41700D01*
X130540Y42700D01*
G01Y46700D02*
X132060D01*
G01X135007Y45700D02*
X135387Y46283D01*
X135893Y46617D01*
X136463Y46700D01*
X136970Y46617D01*
X137477Y46200D01*
X137793Y45700D01*
X137857Y45200D01*
X137730Y44617D01*
X137287Y44200D01*
X136843Y44033D01*
X136273D01*
G01X136843D02*
X137223Y43783D01*
X137540Y43367D01*
X137667Y42867D01*
X137540Y42367D01*
X137223Y41950D01*
X136653Y41700D01*
X136083Y41783D01*
X135513Y42117D01*
G01X115267Y152300D02*
Y157300D01*
X113683D01*
X113177Y157050D01*
X112860Y156717D01*
X112733Y156050D01*
X112860Y155383D01*
X113240Y154967D01*
X113683Y154717D01*
X115267D01*
G01X113683D02*
X112733Y152300D01*
G01X108140D02*
Y157300D01*
X110483Y153717D01*
X107317D01*
G01X158654Y8455D02*
X184055D01*
Y656D01*
X158654D01*
Y8455D01*
G01X186900Y89500D02*
X151300D01*
Y129100D01*
X186900D01*
Y89500D01*
G01X151993Y114300D02*
Y110717D01*
X151740Y109967D01*
X151233Y109467D01*
X150600Y109300D01*
X149967Y109467D01*
X149460Y109967D01*
X149207Y110717D01*
Y114300D01*
G01X146703Y113467D02*
X146323Y113967D01*
X145880Y114217D01*
X145373Y114300D01*
X144740Y114133D01*
X144297Y113717D01*
X144170Y113217D01*
X144233Y112717D01*
X144487Y112300D01*
X145753Y111467D01*
X146323Y110883D01*
X146703Y110050D01*
X146830Y109300D01*
X144170D01*
G01X177007Y42400D02*
Y45983D01*
X177260Y46733D01*
X177767Y47233D01*
X178400Y47400D01*
X179033Y47233D01*
X179540Y46733D01*
X179793Y45983D01*
Y42400D01*
G01X182107Y46650D02*
X182487Y47067D01*
X182930Y47317D01*
X183500Y47400D01*
X184070Y47233D01*
X184513Y46900D01*
X184830Y46317D01*
X184893Y45650D01*
X184767Y44983D01*
X184450Y44567D01*
X184007Y44233D01*
X183563Y44150D01*
X183120Y44233D01*
X182550Y44567D01*
X182740Y42400D01*
X184450D01*
G01X207054Y8055D02*
X232455D01*
Y256D01*
X207054D01*
Y8055D01*
G01X223407Y105383D02*
X223787Y105633D01*
X224230Y105800D01*
X224737D01*
X225307Y105550D01*
X225750Y105133D01*
X226067Y104633D01*
X226320Y103800D01*
X226383Y103050D01*
X226257Y102300D01*
X226067Y101800D01*
X225687Y101300D01*
X225243Y100967D01*
X224800Y100800D01*
X224357D01*
X223913Y100967D01*
X223533Y101217D01*
X223217Y101550D01*
G01X221093D02*
X220713Y101133D01*
X220270Y100883D01*
X219700Y100800D01*
X219130Y100967D01*
X218687Y101300D01*
X218370Y101883D01*
X218307Y102550D01*
X218433Y103217D01*
X218750Y103633D01*
X219193Y103967D01*
X219637Y104050D01*
X220080Y103967D01*
X220650Y103633D01*
X220460Y105800D01*
X218750D01*
G01X215803Y104967D02*
X215423Y105467D01*
X214980Y105717D01*
X214473Y105800D01*
X213840Y105633D01*
X213397Y105217D01*
X213270Y104717D01*
X213333Y104217D01*
X213587Y103800D01*
X214853Y102967D01*
X215423Y102383D01*
X215803Y101550D01*
X215930Y100800D01*
X213270D01*
G01X233000Y81600D02*
X212000D01*
Y97600D01*
X233000D01*
Y81600D01*
G01X221307Y143083D02*
X221687Y143333D01*
X222130Y143500D01*
X222637D01*
X223207Y143250D01*
X223650Y142833D01*
X223967Y142333D01*
X224220Y141500D01*
X224283Y140750D01*
X224157Y140000D01*
X223967Y139500D01*
X223587Y139000D01*
X223143Y138667D01*
X222700Y138500D01*
X222257D01*
X221813Y138667D01*
X221433Y138917D01*
X221117Y139250D01*
G01X218993D02*
X218613Y138833D01*
X218170Y138583D01*
X217600Y138500D01*
X217030Y138667D01*
X216587Y139000D01*
X216270Y139583D01*
X216207Y140250D01*
X216333Y140917D01*
X216650Y141333D01*
X217093Y141667D01*
X217537Y141750D01*
X217980Y141667D01*
X218550Y141333D01*
X218360Y143500D01*
X216650D01*
G01X211740Y138500D02*
Y143500D01*
X214083Y139917D01*
X210917D01*
G01X230900Y119300D02*
X209900D01*
Y135300D01*
X230900D01*
Y119300D01*
G01X228400Y150700D02*
X207400D01*
Y166700D01*
X228400D01*
Y150700D01*
G01X218807Y174483D02*
X219187Y174733D01*
X219630Y174900D01*
X220137D01*
X220707Y174650D01*
X221150Y174233D01*
X221467Y173733D01*
X221720Y172900D01*
X221783Y172150D01*
X221657Y171400D01*
X221467Y170900D01*
X221087Y170400D01*
X220643Y170067D01*
X220200Y169900D01*
X219757D01*
X219313Y170067D01*
X218933Y170317D01*
X218617Y170650D01*
G01X216493D02*
X216113Y170233D01*
X215670Y169983D01*
X215100Y169900D01*
X214530Y170067D01*
X214087Y170400D01*
X213770Y170983D01*
X213707Y171650D01*
X213833Y172317D01*
X214150Y172733D01*
X214593Y173067D01*
X215037Y173150D01*
X215480Y173067D01*
X216050Y172733D01*
X215860Y174900D01*
X214150D01*
G01X211393Y170650D02*
X211013Y170233D01*
X210570Y169983D01*
X210000Y169900D01*
X209430Y170067D01*
X208987Y170400D01*
X208670Y170983D01*
X208607Y171650D01*
X208733Y172317D01*
X209050Y172733D01*
X209493Y173067D01*
X209937Y173150D01*
X210380Y173067D01*
X210950Y172733D01*
X210760Y174900D01*
X209050D01*
G01X247900Y17600D02*
Y41200D01*
X271500D01*
Y17600D01*
X247900D01*
G01X225407Y42000D02*
Y45583D01*
X225660Y46333D01*
X226167Y46833D01*
X226800Y47000D01*
X227433Y46833D01*
X227940Y46333D01*
X228193Y45583D01*
Y42000D01*
G01X232660Y47000D02*
Y42000D01*
X230317Y45583D01*
X233483D01*
G01X273100Y76300D02*
X252100D01*
Y92300D01*
X273100D01*
Y76300D01*
G01X263507Y100083D02*
X263887Y100333D01*
X264330Y100500D01*
X264837D01*
X265407Y100250D01*
X265850Y99833D01*
X266167Y99333D01*
X266420Y98500D01*
X266483Y97750D01*
X266357Y97000D01*
X266167Y96500D01*
X265787Y96000D01*
X265343Y95667D01*
X264900Y95500D01*
X264457D01*
X264013Y95667D01*
X263633Y95917D01*
X263317Y96250D01*
G01X261193D02*
X260813Y95833D01*
X260370Y95583D01*
X259800Y95500D01*
X259230Y95667D01*
X258787Y96000D01*
X258470Y96583D01*
X258407Y97250D01*
X258533Y97917D01*
X258850Y98333D01*
X259293Y98667D01*
X259737Y98750D01*
X260180Y98667D01*
X260750Y98333D01*
X260560Y100500D01*
X258850D01*
G01X256093Y96500D02*
X255713Y95917D01*
X255207Y95583D01*
X254637Y95500D01*
X254130Y95583D01*
X253623Y96000D01*
X253307Y96500D01*
X253243Y97000D01*
X253370Y97583D01*
X253813Y98000D01*
X254257Y98167D01*
X254827D01*
G01X254257D02*
X253877Y98417D01*
X253560Y98833D01*
X253433Y99333D01*
X253560Y99833D01*
X253877Y100250D01*
X254447Y100500D01*
X255017Y100417D01*
X255587Y100083D01*
G01X255354Y133906D02*
Y130323D01*
X255101Y129573D01*
X254595Y129073D01*
X253962Y128906D01*
X253328Y129073D01*
X252822Y129573D01*
X252569Y130323D01*
Y133906D01*
G01X248864Y128906D02*
Y133906D01*
X249623Y132906D01*
G01Y128906D02*
X248104D01*
G01X244969Y133073D02*
X244589Y133573D01*
X244145Y133823D01*
X243639Y133906D01*
X243006Y133739D01*
X242562Y133323D01*
X242436Y132823D01*
X242499Y132323D01*
X242752Y131906D01*
X244019Y131073D01*
X244589Y130489D01*
X244969Y129656D01*
X245095Y128906D01*
X242436D01*
G01X264700Y52007D02*
X261117D01*
X260367Y52260D01*
X259867Y52767D01*
X259700Y53400D01*
X259867Y54033D01*
X260367Y54540D01*
X261117Y54793D01*
X264700D01*
G01X259700Y58500D02*
X264700D01*
X263700Y57740D01*
G01X259700D02*
Y59260D01*
G01Y63600D02*
X264700D01*
X263700Y62840D01*
G01X259700D02*
Y64360D01*
G01X307161Y108040D02*
X257948D01*
Y149772D01*
X307161D01*
Y108040D01*
G01X297500Y6593D02*
X301083D01*
X301833Y6340D01*
X302333Y5833D01*
X302500Y5200D01*
X302333Y4567D01*
X301833Y4060D01*
X301083Y3807D01*
X297500D01*
G01X302500Y100D02*
X297500D01*
X298500Y860D01*
G01X302500D02*
Y-660D01*
G01X297500Y-5000D02*
X297667Y-4493D01*
X298083Y-4113D01*
X298583Y-3860D01*
X299250Y-3670D01*
X300000Y-3607D01*
X300750Y-3670D01*
X301417Y-3860D01*
X301917Y-4113D01*
X302333Y-4493D01*
X302500Y-5000D01*
X302333Y-5507D01*
X301917Y-5887D01*
X301417Y-6140D01*
X300750Y-6330D01*
X300000Y-6393D01*
X299250Y-6330D01*
X298583Y-6140D01*
X298083Y-5887D01*
X297667Y-5507D01*
X297500Y-5000D01*
G01X314300Y41000D02*
Y17400D01*
X290700D01*
Y41000D01*
X314300D01*
M02*
