G04 ================== begin FILE IDENTIFICATION RECORD ==================*
G04 Layout Name:  test.brd*
G04 Film Name:    art-testbuttom-layer2*
G04 File Format:  Gerber RS274X*
G04 File Origin:  Cadence Allegro 16.6-P004*
G04 Origin Date:  Wed Nov 26 10:50:49 2014*
G04 *
G04 Layer:  VIA CLASS/BOTTOM*
G04 Layer:  PIN/BOTTOM*
G04 Layer:  ETCH/BOTTOM*
G04 Layer:  DRAWING FORMAT/OUTLINE*
G04 Layer:  DRAWING FORMAT/TITLE_BLOCK*
G04 Layer:  DRAWING FORMAT/TITLE_DATA*
G04 Layer:  DRAWING FORMAT/REVISION_BLOCK*
G04 Layer:  DRAWING FORMAT/REVISION_DATA*
G04 Layer:  BOARD GEOMETRY/OUTLINE*
G04 *
G04 Offset:    (0.00 0.00)*
G04 Mirror:    No*
G04 Mode:      Positive*
G04 Rotation:  0*
G04 FullContactRelief:  No*
G04 UndefLineWidth:     6.00*
G04 ================== end FILE IDENTIFICATION RECORD ====================*
%FSLAX25Y25*MOIN*%
%IR0*IPPOS*OFA0.00000B0.00000*MIA0B0*SFA1.00000B1.00000*%
%ADD12C,.028*%
%ADD11C,.06299*%
%ADD10R,.04X.08*%
%ADD13R,.09842X.045*%
%ADD14C,.006*%
%ADD15C,.008*%
%ADD18R,.07004X.11004*%
%ADD19C,.09302*%
%ADD20R,.12846X.07502*%
%ADD16C,.13814*%
%ADD17C,.13815*%
G75*
%LPD*%
G75*
G36*
G01X1987Y1967D02*
Y17451D01*
G03X-2214Y21652I-4201J0D01*
G01X-17698D01*
Y159319D01*
X-2214D01*
G03X1987Y163520I0J4201D01*
G01Y179005D01*
X336505D01*
Y163520D01*
G03X340706Y159319I4201J0D01*
G01X356190D01*
Y21652D01*
X340706D01*
G03X336505Y17451I0J-4201D01*
G01Y1967D01*
X1987D01*
G37*
%LPC*%
G75*
G36*
G01X177226Y41366D02*
Y33884D01*
X164380D01*
Y41388D01*
X175798D01*
Y48868D01*
X188642D01*
Y41366D01*
X177226D01*
G37*
G36*
G01X125026Y40666D02*
Y33184D01*
X112180D01*
Y40688D01*
X123598D01*
Y48168D01*
X136442D01*
Y40666D01*
X125026D01*
G37*
G36*
G01X265588Y4576D02*
X192440D01*
Y21168D01*
X188642D01*
Y19318D01*
X175798D01*
Y21168D01*
X169182D01*
Y23718D01*
X136442D01*
Y18618D01*
X123598D01*
Y23718D01*
X25598D01*
Y39698D01*
X23998D01*
Y50702D01*
X31002D01*
Y39698D01*
X29402D01*
Y27520D01*
X41398D01*
Y39698D01*
X39798D01*
Y50702D01*
X46802D01*
Y39698D01*
X45202D01*
Y30620D01*
X83492D01*
G03X83869Y31156I0J400D01*
G02X84698Y34328I2731J981D01*
G01Y39698D01*
X83098D01*
Y50702D01*
X90102D01*
Y39698D01*
X88502D01*
Y34328D01*
G02X89331Y31156I-1902J-2191D01*
G03X89708Y30620I377J-136D01*
G01X202442D01*
Y11478D01*
X212780D01*
Y16578D01*
X225626D01*
Y11478D01*
X236040D01*
Y18918D01*
X224198D01*
Y26420D01*
X236040D01*
Y40966D01*
X225626D01*
Y33484D01*
X212780D01*
Y40988D01*
X224198D01*
Y42816D01*
X211380D01*
Y75284D01*
X215498D01*
Y85863D01*
G03X214829Y86159I-400J0D01*
G02Y93041I-3129J3441D01*
G03X215498Y93337I269J296D01*
G01Y162498D01*
X210837D01*
G03X210541Y161829I0J-400D01*
G02X203659I-3441J-3129D01*
G03X203363Y162498I-296J269D01*
G01X182801D01*
Y133345D01*
G02X178998I-1902J-4245D01*
G01Y166302D01*
X219302D01*
Y71482D01*
X215184D01*
Y63034D01*
X225626D01*
Y55532D01*
X215184D01*
Y46618D01*
X224198D01*
Y48468D01*
X236040D01*
Y85124D01*
G03X235454Y85478I-400J0D01*
G02X231398Y93845I-2154J4122D01*
G01Y121248D01*
X229298D01*
Y123055D01*
G02X235202Y124929I1902J4245D01*
G01Y93845D01*
G02X237545Y91502I-1902J-4245D01*
G01X239842D01*
Y20502D01*
X253702D01*
Y19102D01*
X255302D01*
Y8378D01*
X261786D01*
Y105520D01*
G03X261113Y105813I-400J0D01*
G02Y112629I-3165J3408D01*
G03X261786Y112922I273J293D01*
G01Y147295D01*
G03X261116Y147591I-400J1D01*
G02Y154473I-3129J3441D01*
G03X261786Y154769I270J295D01*
G01Y156798D01*
X232945D01*
G02Y160602I-4245J1902D01*
G01X265588D01*
Y50702D01*
X271102D01*
Y39698D01*
X265588D01*
Y27820D01*
X308498D01*
Y39498D01*
X306898D01*
Y50502D01*
X313902D01*
Y39498D01*
X312302D01*
Y24018D01*
X265588D01*
Y19102D01*
X271102D01*
Y8098D01*
X265588D01*
Y4576D01*
G37*
G54D18*
X27500Y13600D03*
X43300D03*
X70800D03*
Y45200D03*
X86600Y13600D03*
X251800Y45200D03*
X294600Y13400D03*
X310400D03*
X294600Y45000D03*
G54D19*
X78943Y68055D03*
X62255Y84743D03*
X92944Y82056D03*
X106945Y96057D03*
X90257Y112745D03*
X100900Y141100D03*
X122500D03*
X157300Y89500D03*
Y129100D03*
X180900Y89500D03*
Y109300D03*
X209600Y127300D03*
X251800Y84300D03*
X250113Y140009D03*
Y130166D03*
Y120324D03*
X273400Y84300D03*
X282594Y161111D03*
X272751D03*
X307161Y109221D03*
X292436Y161111D03*
X307200Y151032D03*
G54D20*
X118603Y12527D03*
Y58983D03*
X170803Y13227D03*
Y59683D03*
G54D16*
X-9888Y90486D03*
G54D17*
X169246Y171194D03*
X348380Y90486D03*
%LPD*%
G75*
G36*
G01X196242Y8378D02*
Y24970D01*
X188642D01*
Y26818D01*
X198640D01*
Y8378D01*
X196242D01*
G37*
G36*
G01X239842D02*
Y16698D01*
X248298D01*
Y8378D01*
X239842D01*
G37*
G54D10*
X27500Y13600D03*
X43300D03*
Y45200D03*
X27500D03*
X70800Y13600D03*
Y45200D03*
X86600Y13600D03*
Y45200D03*
X251800Y13600D03*
Y45200D03*
X267600Y13600D03*
Y45200D03*
X294600Y13400D03*
X310400D03*
Y45000D03*
X294600D03*
G54D11*
X78943Y68055D03*
X62255Y84743D03*
X92944Y82056D03*
X106945Y96057D03*
X90257Y112745D03*
X100900Y141100D03*
X122500D03*
X157300Y89500D03*
Y129100D03*
X180900Y89500D03*
Y109300D03*
Y129100D03*
X211700Y89600D03*
X209600Y127300D03*
X207100Y158700D03*
X233300Y89600D03*
X251800Y84300D03*
X231200Y127300D03*
X250113Y140009D03*
Y130166D03*
Y120324D03*
X228700Y158700D03*
X273400Y84300D03*
X257948Y109221D03*
X257987Y151032D03*
X282594Y161111D03*
X272751D03*
X307161Y109221D03*
X292436Y161111D03*
X307200Y151032D03*
G54D12*
X86600Y32136D03*
X267600Y84300D03*
X294600Y7200D03*
G54D13*
X118603Y12527D03*
X130020Y22369D03*
Y44417D03*
X118603Y36936D03*
Y58983D03*
X170803Y13227D03*
X182220Y23069D03*
Y45117D03*
X170803Y37636D03*
Y59683D03*
X219203Y12827D03*
Y37236D03*
Y59283D03*
X230620Y22669D03*
Y44717D03*
G54D14*
G01X-14Y181006D02*
X338506D01*
Y163520D01*
G03X340706Y161320I2200J0D01*
G01X358191D01*
Y19651D01*
X340706D01*
G03X338506Y17451I0J-2200D01*
G01Y-34D01*
X-14D01*
Y17451D01*
G03X-2214Y19651I-2200J0D01*
G01X-19699D01*
Y161320D01*
X-2214D01*
G03X-14Y163520I0J2200D01*
G01Y181006D01*
G54D15*
G01X43300Y13600D02*
Y18600D01*
G01D02*
X27500D01*
Y13600D01*
G01X43300Y7898D02*
Y13600D01*
G01X39598D02*
X43300D01*
G01D02*
X47002D01*
G01X27500Y7898D02*
Y13600D01*
G01X23798D02*
X27500D01*
G01D02*
X31202D01*
G01X70800Y18600D02*
X43300D01*
G01X182220Y23069D02*
X171083D01*
Y25619D01*
X27500D01*
Y45200D01*
G01X43300D02*
Y28719D01*
X200541D01*
Y9577D01*
X237941D01*
Y18600D01*
G01X70800Y13600D02*
Y18600D01*
G01Y7898D02*
Y13600D01*
G01X67098D02*
X70800D01*
G01D02*
X74502D01*
G01X70800Y18600D02*
X100450D01*
G01Y12527D02*
X118603D01*
G01X100450Y18600D02*
Y12527D01*
G01X86600Y45200D02*
Y32136D01*
G01X92944Y77204D02*
Y82056D01*
G01D02*
X122500D01*
G01X92944D02*
Y86908D01*
G01X88092Y82056D02*
X92944D01*
G01X118603Y8575D02*
Y12527D01*
G01D02*
Y16479D01*
G01Y12527D02*
X125226D01*
G01X122500Y82056D02*
Y109300D01*
G01Y141100D02*
Y109300D01*
G01D02*
X180900D01*
G01X122500Y141100D02*
Y145952D01*
G01X117648Y141100D02*
X122500D01*
G01D02*
X127352D01*
G01X164180Y13227D02*
X170803D01*
G01Y9275D02*
Y13227D01*
G01D02*
Y17179D01*
G01Y13227D02*
X177426D01*
G01X263687Y25919D02*
Y6477D01*
X194341D01*
Y23069D01*
X182220D01*
G01X180900Y104448D02*
Y109300D01*
G01D02*
X209600D01*
G01X180900D02*
Y114152D01*
G01Y129100D02*
Y164400D01*
X217400D01*
Y73383D01*
X213282D01*
Y44717D01*
X230620D01*
G01X219203Y12827D02*
X211700D01*
G01D02*
Y89600D01*
G01X219203Y12827D02*
Y16779D01*
G01Y12827D02*
X225826D01*
G01X211700Y89600D02*
Y109300D01*
G01X209600D02*
Y127300D01*
G01X211700Y109300D02*
X209600D01*
G01Y142300D02*
Y127300D01*
G01X204748D02*
X209600D01*
G01D02*
X214452D01*
G01X207100Y158700D02*
Y142300D01*
G01D02*
X209600D01*
G01X202248Y158700D02*
X207100D01*
G01D02*
X211952D01*
G01X251800Y13600D02*
Y18600D01*
X237941D01*
G01X230620Y22669D02*
X237941D01*
G01Y18600D02*
Y22669D01*
G01D02*
Y89600D01*
X233300D01*
G01X251800Y79448D02*
Y84300D01*
G01D02*
Y89152D01*
G01X246948Y84300D02*
X251800D01*
G01D02*
X256652D01*
G01X231200Y127300D02*
Y123150D01*
X233300D01*
Y89600D01*
G01X228700Y158700D02*
X263687D01*
Y25919D01*
G01X267600Y45200D02*
Y84300D01*
G01Y39498D02*
Y45200D01*
G01D02*
X271302D01*
G01X310400Y45000D02*
Y25919D01*
X263687D01*
G01X294600Y13400D02*
Y7200D01*
G01Y13400D02*
Y19102D01*
G01X290898Y13400D02*
X294600D01*
G01D02*
X298302D01*
M02*
