M48
INCH
T01C.014
T02C.04331
;LEADER: 12 
;HEADER: 
;CODE  : ASCII 
;FILE  : test-1-2.drl for board #Taaaaap04656.tmp ... layers TOP and BOTTOM
;T01 Holesize 1. = 14.000000 Tolerance = +0.000000/-0.000000 PLATED MILS Quantity = 3
;T02 Holesize 2. = 43.310000 Tolerance = +0.000000/-0.000000 PLATED MILS Quantity = 30
%
G90
T01
X0086600Y0032136
X0267600Y0084300
X0294600Y0007200
T02
X0062255Y0084743
X0078943Y0068055
X0092944Y0082056
X0106945Y0096057
X0090257Y0112745
X0100900Y0141100
X0122500Y0141100
X0157300Y0129100
X0157300Y0089500
X0180900Y0089500
X0180900Y0109300
X0180900Y0129100
X0207100Y0158700
X0228700Y0158700
X0209600Y0127300
X0231200Y0127300
X0233300Y0089600
X0211700Y0089600
X0273400Y0084300
X0251800Y0084300
X0257948Y0109221
X0250113Y0120324
X0250113Y0130166
X0250113Y0140009
X0257987Y0151032
X0272751Y0161111
X0292436Y0161111
X0282594Y0161111
X0307200Y0151032
X0307161Y0109221
M30
