M48
INCH
T01C.03
%
G90
F1
M16
T01
M16
G00X0216767Y0012827
G40
M15
G01X0221639Y0012827
M16
G00X0216767Y0037236
G40
M15
G01X0221639Y0037236
M16
G00X0216767Y0059283
G40
M15
G01X0221639Y0059283
M16
G00X0228183Y0044717
G40
M15
G01X0233055Y0044717
M16
G00X0228183Y0022669
G40
M15
G01X0233055Y0022669
M16
G00X0168367Y0013227
G40
M15
G01X0173239Y0013227
M16
G00X0168367Y0037636
G40
M15
G01X0173239Y0037636
M16
G00X0168367Y0059683
G40
M15
G01X0173239Y0059683
M16
G00X0179784Y0045117
G40
M15
G01X0184656Y0045117
M16
G00X0179784Y0023069
G40
M15
G01X0184656Y0023069
M16
G00X0116167Y0012527
G40
M15
G01X0121039Y0012527
M16
G00X0116167Y0036936
G40
M15
G01X0121039Y0036936
M16
G00X0116167Y0058983
G40
M15
G01X0121039Y0058983
M16
G00X0127584Y0044417
G40
M15
G01X0132456Y0044417
M16
G00X0127584Y0022369
G40
M15
G01X0132456Y0022369
M16
G40
M30
