M48
INCH
T03C.04
%
G90
F1
M16
T01
M16
G00X0140356Y0000057
M15
G01X0140356Y0191715
G01X0003935Y0191715
G01X0003935Y0110052
G01X0008983Y0107138
G01X0008983Y0074486
G01X0003935Y0071572
G01X0003935Y0000057
G01X0140356Y0000057
M16
T03
M16
G00X0122200Y0135000
G40
M15
G01X0122200Y0138000
M16
G00X0098500Y0135000
G40
M15
G01X0098500Y0138000
M16
G00X0074800Y0135000
G40
M15
G01X0074800Y0138000
M16
G00X0090600Y0127200
G40
M15
G01X0090600Y0130200
M16
G00X0114300Y0127200
G40
M15
G01X0114300Y0130200
M16
G00X0123200Y0055000
G40
M15
G01X0123200Y0058000
M16
G00X0099500Y0055000
G40
M15
G01X0099500Y0058000
M16
G00X0075800Y0055000
G40
M15
G01X0075800Y0058000
M16
G00X0091600Y0047200
G40
M15
G01X0091600Y0050200
M16
G00X0115300Y0047200
G40
M15
G01X0115300Y0050200
M16
G00X0123200Y0095000
G40
M15
G01X0123200Y0098000
M16
G00X0099500Y0095000
G40
M15
G01X0099500Y0098000
M16
G00X0075800Y0095000
G40
M15
G01X0075800Y0098000
M16
G00X0091600Y0087200
G40
M15
G01X0091600Y0090200
M16
G00X0115300Y0087200
G40
M15
G01X0115300Y0090200
M16
G40
M30
