G04 ================== begin FILE IDENTIFICATION RECORD ==================*
G04 Layout Name:  D:/LayoutPCB/pedal_control_pcb/pedal.brd*
G04 Film Name:    silktop*
G04 File Format:  Gerber RS274X*
G04 File Origin:  Cadence Allegro 16.6-P004*
G04 Origin Date:  Mon Jul 21 11:36:12 2014*
G04 *
G04 Layer:  REF DES/SILKSCREEN_TOP*
G04 Layer:  PACKAGE GEOMETRY/SILKSCREEN_TOP*
G04 Layer:  DRAWING FORMAT/OUTLINE*
G04 Layer:  DRAWING FORMAT/TITLE_BLOCK*
G04 Layer:  DRAWING FORMAT/TITLE_DATA*
G04 Layer:  DRAWING FORMAT/REVISION_BLOCK*
G04 Layer:  DRAWING FORMAT/REVISION_DATA*
G04 Layer:  BOARD GEOMETRY/OUTLINE*
G04 Layer:  BOARD GEOMETRY/SILKSCREEN_TOP*
G04 *
G04 Offset:    (0.00 0.00)*
G04 Mirror:    No*
G04 Mode:      Positive*
G04 Rotation:  0*
G04 FullContactRelief:  No*
G04 UndefLineWidth:     6.00*
G04 ================== end FILE IDENTIFICATION RECORD ====================*
%FSLAX25Y25*MOIN*%
%IR0*IPPOS*OFA0.00000B0.00000*MIA0B0*SFA1.00000B1.00000*%
%ADD10C,.006*%
G75*
%LPD*%
G75*
G54D10*
G01X18107Y8135D02*
G03I-5906J0D01*
G01X140357Y191716D02*
Y56D01*
X3934D01*
Y71573D01*
X8982Y74487D01*
Y107137D01*
X3934Y110051D01*
Y191716D01*
X140357D01*
G01X18107Y185300D02*
G03I-5906J0D01*
G01X26593Y68283D02*
X26213Y68533D01*
X25770Y68700D01*
X25263D01*
X24693Y68450D01*
X24250Y68033D01*
X23933Y67533D01*
X23680Y66700D01*
X23617Y65950D01*
X23743Y65200D01*
X23933Y64700D01*
X24313Y64200D01*
X24757Y63867D01*
X25200Y63700D01*
X25643D01*
X26087Y63867D01*
X26467Y64117D01*
X26783Y64450D01*
G01X28907D02*
X29287Y64033D01*
X29730Y63783D01*
X30300Y63700D01*
X30870Y63867D01*
X31313Y64200D01*
X31630Y64783D01*
X31693Y65450D01*
X31567Y66117D01*
X31250Y66533D01*
X30807Y66867D01*
X30363Y66950D01*
X29920Y66867D01*
X29350Y66533D01*
X29540Y68700D01*
X31250D01*
G01X34007Y64700D02*
X34387Y64117D01*
X34893Y63783D01*
X35463Y63700D01*
X35970Y63783D01*
X36477Y64200D01*
X36793Y64700D01*
X36857Y65200D01*
X36730Y65783D01*
X36287Y66200D01*
X35843Y66367D01*
X35273D01*
G01X35843D02*
X36223Y66617D01*
X36540Y67033D01*
X36667Y67533D01*
X36540Y68033D01*
X36223Y68450D01*
X35653Y68700D01*
X35083Y68617D01*
X34513Y68283D01*
G01X38283Y93407D02*
X38533Y93787D01*
X38700Y94230D01*
Y94737D01*
X38450Y95307D01*
X38033Y95750D01*
X37533Y96067D01*
X36700Y96320D01*
X35950Y96383D01*
X35200Y96257D01*
X34700Y96067D01*
X34200Y95687D01*
X33867Y95243D01*
X33700Y94800D01*
Y94357D01*
X33867Y93913D01*
X34117Y93533D01*
X34450Y93217D01*
G01Y91093D02*
X34033Y90713D01*
X33783Y90270D01*
X33700Y89700D01*
X33867Y89130D01*
X34200Y88687D01*
X34783Y88370D01*
X35450Y88307D01*
X36117Y88433D01*
X36533Y88750D01*
X36867Y89193D01*
X36950Y89637D01*
X36867Y90080D01*
X36533Y90650D01*
X38700Y90460D01*
Y88750D01*
G01X34450Y85993D02*
X34033Y85613D01*
X33783Y85170D01*
X33700Y84600D01*
X33867Y84030D01*
X34200Y83587D01*
X34783Y83270D01*
X35450Y83207D01*
X36117Y83333D01*
X36533Y83650D01*
X36867Y84093D01*
X36950Y84537D01*
X36867Y84980D01*
X36533Y85550D01*
X38700Y85360D01*
Y83650D01*
G01X26593Y148283D02*
X26213Y148533D01*
X25770Y148700D01*
X25263D01*
X24693Y148450D01*
X24250Y148033D01*
X23933Y147533D01*
X23680Y146700D01*
X23617Y145950D01*
X23743Y145200D01*
X23933Y144700D01*
X24313Y144200D01*
X24757Y143867D01*
X25200Y143700D01*
X25643D01*
X26087Y143867D01*
X26467Y144117D01*
X26783Y144450D01*
G01X28907D02*
X29287Y144033D01*
X29730Y143783D01*
X30300Y143700D01*
X30870Y143867D01*
X31313Y144200D01*
X31630Y144783D01*
X31693Y145450D01*
X31567Y146117D01*
X31250Y146533D01*
X30807Y146867D01*
X30363Y146950D01*
X29920Y146867D01*
X29350Y146533D01*
X29540Y148700D01*
X31250D01*
G01X34197Y147867D02*
X34577Y148367D01*
X35020Y148617D01*
X35527Y148700D01*
X36160Y148533D01*
X36603Y148117D01*
X36730Y147617D01*
X36667Y147117D01*
X36413Y146700D01*
X35147Y145867D01*
X34577Y145283D01*
X34197Y144450D01*
X34070Y143700D01*
X36730D01*
G01X26593Y173283D02*
X26213Y173533D01*
X25770Y173700D01*
X25263D01*
X24693Y173450D01*
X24250Y173033D01*
X23933Y172533D01*
X23680Y171700D01*
X23617Y170950D01*
X23743Y170200D01*
X23933Y169700D01*
X24313Y169200D01*
X24757Y168867D01*
X25200Y168700D01*
X25643D01*
X26087Y168867D01*
X26467Y169117D01*
X26783Y169450D01*
G01X28907D02*
X29287Y169033D01*
X29730Y168783D01*
X30300Y168700D01*
X30870Y168867D01*
X31313Y169200D01*
X31630Y169783D01*
X31693Y170450D01*
X31567Y171117D01*
X31250Y171533D01*
X30807Y171867D01*
X30363Y171950D01*
X29920Y171867D01*
X29350Y171533D01*
X29540Y173700D01*
X31250D01*
G01X36160Y168700D02*
Y173700D01*
X33817Y170117D01*
X36983D01*
G01X72500Y11493D02*
X68917D01*
X68167Y11240D01*
X67667Y10733D01*
X67500Y10100D01*
X67667Y9467D01*
X68167Y8960D01*
X68917Y8707D01*
X72500D01*
G01X67500Y5000D02*
X72500D01*
X71500Y5760D01*
G01X67500D02*
Y4240D01*
G01X48550Y115107D02*
X52133D01*
X52883Y115360D01*
X53383Y115867D01*
X53550Y116500D01*
X53383Y117133D01*
X52883Y117640D01*
X52133Y117893D01*
X48550D01*
G01X51467Y120397D02*
X50883Y120840D01*
X50550Y121220D01*
X50383Y121727D01*
X50550Y122170D01*
X50883Y122487D01*
X51383Y122740D01*
X51967Y122803D01*
X52467Y122740D01*
X52967Y122487D01*
X53383Y122107D01*
X53550Y121663D01*
X53383Y121157D01*
X52883Y120713D01*
X52133Y120460D01*
X51300Y120397D01*
X50217Y120523D01*
X49633Y120713D01*
X49050Y121030D01*
X48633Y121473D01*
X48550Y121917D01*
X48717Y122360D01*
X49133Y122677D01*
G01X103500Y126493D02*
X99917D01*
X99167Y126240D01*
X98667Y125733D01*
X98500Y125100D01*
X98667Y124467D01*
X99167Y123960D01*
X99917Y123707D01*
X103500D01*
G01X99250Y121393D02*
X98833Y121013D01*
X98583Y120570D01*
X98500Y120000D01*
X98667Y119430D01*
X99000Y118987D01*
X99583Y118670D01*
X100250Y118607D01*
X100917Y118733D01*
X101333Y119050D01*
X101667Y119493D01*
X101750Y119937D01*
X101667Y120380D01*
X101333Y120950D01*
X103500Y120760D01*
Y119050D01*
G01X67500Y184607D02*
X71083D01*
X71833Y184860D01*
X72333Y185367D01*
X72500Y186000D01*
X72333Y186633D01*
X71833Y187140D01*
X71083Y187393D01*
X67500D01*
G01X68333Y189897D02*
X67833Y190277D01*
X67583Y190720D01*
X67500Y191227D01*
X67667Y191860D01*
X68083Y192303D01*
X68583Y192430D01*
X69083Y192367D01*
X69500Y192113D01*
X70333Y190847D01*
X70917Y190277D01*
X71750Y189897D01*
X72500Y189770D01*
Y192430D01*
G01X136217Y8135D02*
G03I-5906J0D01*
G01X104500Y46493D02*
X100917D01*
X100167Y46240D01*
X99667Y45733D01*
X99500Y45100D01*
X99667Y44467D01*
X100167Y43960D01*
X100917Y43707D01*
X104500D01*
G01X99500Y39240D02*
X104500D01*
X100917Y41583D01*
Y38417D01*
G01X104500Y86493D02*
X100917D01*
X100167Y86240D01*
X99667Y85733D01*
X99500Y85100D01*
X99667Y84467D01*
X100167Y83960D01*
X100917Y83707D01*
X104500D01*
G01X100500Y81393D02*
X99917Y81013D01*
X99583Y80507D01*
X99500Y79937D01*
X99583Y79430D01*
X100000Y78923D01*
X100500Y78607D01*
X101000Y78543D01*
X101583Y78670D01*
X102000Y79113D01*
X102167Y79557D01*
Y80127D01*
G01Y79557D02*
X102417Y79177D01*
X102833Y78860D01*
X103333Y78733D01*
X103833Y78860D01*
X104250Y79177D01*
X104500Y79747D01*
X104417Y80317D01*
X104083Y80887D01*
G01X136217Y185300D02*
G03I-5906J0D01*
M02*
